<?xml version="1.0" encoding="UTF-8"?>
<svg id="Camada_2" data-name="Camada 2" xmlns="http://www.w3.org/2000/svg" viewBox="0 0 50 49.71">
  <defs>
    <style>
      .cls-1 {
        fill: #fff;
      }
    </style>
  </defs>
  <g id="Camada_1-2" data-name="Camada 1">
    <path class="cls-1" d="m28.7,49.71v-16.76h5.51c.38-2.33.75-4.61,1.13-6.96h-6.66c-.01-1.71-.04-3.34-.02-4.98,0-.36.16-.71.26-1.06.27-.96.91-1.55,1.85-1.86,1.27-.42,2.56-.54,3.88-.46.3.02.6.04.96.07v-5.98c-1.86-.3-3.71-.67-5.61-.47-1.12.12-2.24.31-3.31.65-2.56.81-4.23,2.56-5.04,5.14-.53,1.69-.62,3.42-.58,5.16.02.98.02,1.95.03,2.93,0,.24-.03.47-.06.8h-5.95c-.12,2.36-.07,4.63,0,7h5.98c.13,5.64.04,11.18.1,16.72C11.41,48.46.53,39.66.02,25.87-.48,12.61,9.57.79,23.67.04c13.98-.75,25.39,9.84,26.28,23.36.86,13.17-8.7,24.51-21.25,26.32Z"/>
  </g>
</svg>