<?xml version="1.0" encoding="UTF-8"?>
<svg id="Camada_2" data-name="Camada 2" xmlns="http://www.w3.org/2000/svg" viewBox="0 0 50 49.89">
  <defs>
    <style>
      .cls-1 {
        fill: #fff;
      }
    </style>
  </defs>
  <g id="Camada_1-2" data-name="Camada 1">
    <path class="cls-1" d="m50,24.49c-.12,3.52-.16,7.04-.4,10.55-.13,1.86-.49,3.72-.95,5.53-1.18,4.57-4.26,7.21-8.77,8.3-3.13.76-6.33.99-9.53,1.01-5.12.03-10.25-.06-15.37-.18-1.41-.03-2.82-.27-4.21-.54-5.59-1.11-8.87-4.64-10.22-10.03-.34-1.36-.47-2.8-.49-4.21C0,28.42-.02,21.92.02,15.43c.01-2.15.32-4.29,1.01-6.35C2.47,4.8,5.45,2.14,9.71.85,11.84.2,14.04.07,16.23.05c5.44-.05,10.89-.09,16.33.02,2.27.05,4.57.33,6.8.79,5.74,1.2,9.11,4.8,9.97,10.62.35,2.39.43,4.82.54,7.24.08,1.92.02,3.84.02,5.76.04,0,.08,0,.12,0ZM24.7,4.38s0,.07,0,.1c-1.92,0-3.84-.06-5.76.01-2.28.09-4.59.11-6.83.47-3.74.59-6.18,2.8-7.04,6.56-.22.98-.45,1.98-.45,2.97-.04,6.81-.04,13.63,0,20.44,0,1.17.23,2.37.51,3.52.87,3.51,3.15,5.6,6.67,6.28,1.52.29,3.09.45,4.63.47,5.76.06,11.53.07,17.29.03,1.45-.01,2.93-.2,4.35-.51,3.2-.68,5.44-2.56,6.37-5.75.39-1.35.71-2.77.73-4.17.09-6.54.11-13.08.03-19.62-.02-1.57-.41-3.18-.89-4.69-.86-2.72-2.77-4.49-5.54-5.22-1.19-.31-2.42-.53-3.64-.58-3.47-.16-6.95-.21-10.42-.31Zm.17,33.35c-8.02-.06-12.94-6.71-12.88-12.95.06-5.64,4.32-12.55,12.84-12.69,7.08-.12,13.01,5.77,12.88,12.92-.14,7.48-6.16,12.7-12.84,12.72Zm8.29-12.72c-.02-4.59-3.72-8.38-8.21-8.42-4.62-.04-8.48,3.86-8.41,8.5.07,4.42,3.89,8.14,8.35,8.12,4.46-.02,8.28-3.81,8.26-8.19Zm8.05-13.35c.01-1.69-1.36-3.12-2.99-3.11-1.66,0-3.05,1.4-3.06,3.06,0,1.67,1.37,3.01,3.08,2.99,1.67-.02,2.96-1.3,2.98-2.94Z"/>
  </g>
</svg>