<?xml version="1.0" encoding="UTF-8"?>
<svg id="Camada_2" data-name="Camada 2" xmlns="http://www.w3.org/2000/svg" viewBox="0 0 50 49.86">
  <defs>
    <style>
      .cls-1 {
        fill: #fff;
      }
    </style>
  </defs>
  <g id="Camada_1-2" data-name="Camada 1">
    <path class="cls-1" d="m49.88,49.68h-10.05c-.04-.74-.11-1.36-.11-1.99-.03-4.9,0-9.8-.1-14.7-.03-1.49-.25-3-.6-4.45-.55-2.27-2.22-3.35-4.46-3.57-2.52-.24-4.76.84-5.64,2.91-.53,1.26-.9,2.68-.95,4.04-.13,3.76-.06,7.54-.07,11.31,0,2.09,0,4.18,0,6.43-3.28.21-6.43.12-9.55.13-.39-1.35-.58-29.41-.23-33.04,1.54-.21,3.14-.05,4.73-.07,1.56-.02,3.12,0,4.87,0,.06,1.23.12,2.43.19,3.89.39-.36.65-.57.87-.82,3.56-3.96,8.9-5.28,13.84-3.31,4.7,1.87,7.08,5.52,7.3,10.47.18,3.92.03,7.86.03,11.79,0,3.12,0,6.25,0,9.37,0,.52-.05,1.05-.07,1.61Zm-48.47.17c3.27,0,6.57.03,9.86-.02V16.76H1.25c-.37,2.06-.25,31.78.15,33.09ZM0,6.07c-.04,3.32,2.8,6.24,6.11,6.28,3.18.03,6.17-2.87,6.2-6.04C12.35,2.93,9.54,0,6.25,0,2.76-.01.04,2.63,0,6.07Z"/>
  </g>
</svg>