<?xml version="1.0" encoding="utf-8"?>
<!-- Generator: Adobe Illustrator 27.2.0, SVG Export Plug-In . SVG Version: 6.00 Build 0)  -->
<svg version="1.1" id="Camada_1" xmlns="http://www.w3.org/2000/svg" xmlns:xlink="http://www.w3.org/1999/xlink" x="0px" y="0px"
	 viewBox="0 0 50 43.58" style="enable-background:new 0 0 50 43.58;" xml:space="preserve">
<style type="text/css">
	.st0{fill:#FFFFFF;}
</style>
<path class="st0" d="M8.11,7.37C7.5,7.92,6.99,8.25,6.43,7.87C6.18,7.7,5.98,7.28,5.95,6.95c-0.06-0.68,0.44-1.04,1-1.29
	C7.63,5.35,8.29,5.51,8.9,5.86c1.86,1.06,2.24,3.65,0.82,5.51c-1.45,1.9-3.98,2.44-6.25,1.33c-3.64-1.78-4.61-6.61-1.99-9.98
	c1.34-1.72,3.13-2.69,5.32-2.7C16.08,0,25.37-0.01,34.66,0.01c3.89,0.01,7.44,1.12,10.44,3.65c3.04,2.56,4.83,5.79,4.46,9.88
	c-0.34,3.82-2.34,6.75-5.4,8.96c-2.61,1.88-5.59,2.76-8.79,2.94c-1.16,0.06-2.33,0.01-3.52,0.01c0-0.52,0-1.02,0-1.63
	c0.62,0,1.2,0.01,1.78,0c4.62-0.14,7.81-2.36,9.3-6.74c1.62-4.77,0.83-9.17-2.72-12.84c-1.72-1.78-3.88-2.7-6.48-2.68
	C25.08,1.61,16.45,1.58,7.82,1.57c-1.8,0-3.42,0.43-4.68,1.82C1.44,5.27,1.2,8.01,2.62,9.9c1.07,1.43,2.94,2.06,4.4,1.47
	c1.24-0.49,2.07-1.8,1.79-2.89C8.68,7.98,8.53,7.65,8.11,7.37z M12.84,35.25c1.35,0,2.64,0,3.98,0c0-10.54,0-21.05,0-31.61
	c-1.34,0-2.63,0-3.98,0C12.84,14.21,12.84,24.72,12.84,35.25z M25.66,35.22c1.36,0,2.66,0,3.96,0c0-9.02,0-17.99,0-26.99
	c-1.34,0-2.64,0-3.96,0C25.66,17.29,25.66,26.26,25.66,35.22z M23.27,8.25c-1.34,0-2.63,0-3.96,0c0,9.02,0,17.99,0,26.99
	c1.31,0,2.59,0,3.96,0C23.27,26.21,23.27,17.24,23.27,8.25z M49.33,32.12c-0.15,0.31-0.29,0.63-0.44,0.94
	c-0.5,0.98-0.99,1.96-1.52,2.92c-2.33,4.13-5.89,6.08-10.61,6.08c-9.57-0.01-20.86,0.04-30.42-0.02c-0.12,0.12-0.83,0.74-1.71,1.54
	c0.33,0.02,0.91,0,1.1,0c10.36,0,21.59-0.01,31.96-0.01c2.83,0,5.66,0,8.49,0c0.32,0,0.64,0.06,0.75-0.41
	c0.84-3.66,2.25-7.19,3.1-10.85C49.96,32.29,49.37,32.14,49.33,32.12z M33.99,39.97c-0.96-0.85-1.8-1.62-2.68-2.36
	c-0.19-0.16-0.5-0.26-0.75-0.26c-6.17-0.01-12.35-0.01-18.52,0c-0.22,0-0.55,0.01-0.69,0.14c-0.89,0.78-1.78,1.57-2.76,2.47
	C17.07,39.97,25.52,39.97,33.99,39.97z M19.02,3.63c0,0.89,0,1.72,0,2.53c0.09,0.03,0.13,0.06,0.17,0.06
	c3.9,0.01,7.81,0.02,11.71,0.02c0.17,0,0.38-0.06,0.5-0.17c0.87-0.77,1.73-1.56,2.7-2.44C28.96,3.63,23.99,3.63,19.02,3.63z"/>
</svg>
