<?xml version="1.0" encoding="UTF-8"?>
<svg id="Camada_2" data-name="Camada 2" xmlns="http://www.w3.org/2000/svg" viewBox="0 0 66.64 50">
  <defs>
    <style>
      .cls-1 {
        fill: #fff;
      }
    </style>
  </defs>
  <g id="Camada_1-2" data-name="Camada 1">
    <path class="cls-1" d="m33.34,0C42.05,0,50.75,0,59.46,0c4.36,0,7.19,2.89,7.18,7.27-.02,10.95,0,21.91,0,32.86,0,.94,0,1.88,0,2.81.02,4.08-2.81,7.01-6.87,7.04-4.37.03-8.73,0-13.1,0-9.82,0-19.63,0-29.45,0-3.33,0-6.66,0-9.99,0-4.37,0-7.2-2.78-7.21-7.16-.02-8.76,0-17.52,0-26.28,0-3.18-.02-6.37,0-9.55C.05,2.82,2.88.01,7.07,0c8.76-.01,17.51,0,26.27,0ZM7.37,4.51c.27.31.43.51.61.7,4.67,5.12,9.33,10.25,14,15.37,1.6,1.75,3.12,3.58,4.84,5.2,3.88,3.66,10.08,3.28,13.81-.79,6.02-6.56,12-13.15,18-19.74.19-.21.37-.43.64-.74H7.37Zm.29,40.73c.07.07.15.15.22.22h51.06c-5.54-5.45-10.95-10.76-16.4-16.13-.07.05-.28.22-.49.38-5.08,3.95-12.37,3.99-17.38.04-.62-.49-.93-.5-1.49.07-4.29,4.36-8.6,8.69-12.93,13.02-.83.83-1.73,1.59-2.6,2.39ZM4.51,8.04v33.85c5.35-5.27,10.79-10.61,16.26-16-5.39-5.92-10.76-11.81-16.26-17.85Zm57.61,33.93V8.03c-5.51,6.05-10.88,11.94-16.29,17.88,5.48,5.4,10.9,10.74,16.29,16.06Z"/>
  </g>
</svg>