<?xml version="1.0" encoding="UTF-8"?>
<svg id="Camada_2" data-name="Camada 2" xmlns="http://www.w3.org/2000/svg" viewBox="0 0 50 50.18">
  <defs>
    <style>
      .cls-1 {
        fill: #fff;
      }
    </style>
  </defs>
  <g id="Camada_1-2" data-name="Camada 1">
    <path class="cls-1" d="m0,50.18c.18-.78.28-1.31.42-1.83.88-3.19,1.76-6.38,2.67-9.56.27-.93.22-1.73-.23-2.62-3.51-6.93-3.72-14.07-.63-21.11C5.84,6.82,12.27,1.91,21.18.34c10.77-1.9,23.56,4.06,27.69,17.26,4.5,14.35-4.91,29.41-19.78,31.84-5.09.83-9.95.19-14.59-2.01-1-.47-1.89-.52-2.93-.23-3.24.9-6.49,1.73-9.74,2.59-.49.13-.99.22-1.83.4Zm6.06-6.06c.45-.08.69-.1.92-.16,1.88-.48,3.76-.92,5.62-1.46.8-.23,1.46-.17,2.17.24,4.46,2.58,9.19,3.4,14.27,2.37,11.09-2.25,18.12-12.88,16.42-23.31C42.86,5.91,24.4-1.2,11.93,9.03c-5.74,4.71-8.09,10.95-7.31,18.34.31,2.98,1.23,5.77,2.85,8.31.45.7.57,1.36.31,2.16-.47,1.45-.87,2.93-1.28,4.4-.16.57-.28,1.15-.45,1.89Zm14.26-22.94c.63-.72.78-1.47.36-2.39-.62-1.34-1.13-2.73-1.72-4.08-.54-1.25-1.19-1.61-2.53-1.37-1.44.26-2.53,1.03-3.17,2.38-1.31,2.76-1.05,5.48.41,8.05,1.96,3.44,4.51,6.41,7.65,8.85,2.49,1.94,5.3,3.24,8.35,3.98,1.02.24,2.14.3,3.17.15,2.37-.33,4-1.69,4.76-3.99.41-1.26.22-1.97-.94-2.57-1.53-.79-3.16-1.38-4.75-2.07-.7-.3-1.17-.03-1.55.55-.36.56-.71,1.12-1.11,1.65-.61.8-1.06.97-1.98.56-3.71-1.62-6.59-4.16-8.58-7.86.61-.7,1.11-1.27,1.61-1.85Z"/>
  </g>
</svg>