<?xml version="1.0" encoding="UTF-8"?>
<svg id="Camada_2" data-name="Camada 2" xmlns="http://www.w3.org/2000/svg" viewBox="0 0 50 49.01">
  <defs>
    <style>
      .cls-1 {
        fill: #fff;
      }
    </style>
  </defs>
  <g id="Camada_1-2" data-name="Camada 1">
    <path class="cls-1" d="m50,48.96c-2.38,0-4.42,0-6.45,0-2.4,0-4.8-.07-7.19.03-1.26.05-2.01-.34-2.75-1.4-3.81-5.49-7.71-10.91-11.59-16.35-.15-.2-.32-.39-.55-.68-.35.37-.66.67-.95,1.01-4.56,5.36-9.14,10.7-13.66,16.1-.8.95-1.61,1.45-2.86,1.31-.7-.08-1.42-.01-2.09-.01-.06-.12-.09-.17-.1-.22-.01-.04-.03-.11-.01-.14.1-.18.19-.36.32-.51,5.75-6.76,11.5-13.51,17.25-20.27.03-.04.04-.09.09-.24C13.01,18.57,6.34,9.64,0,.1c.83-.03,1.41-.06,1.99-.06,3.98,0,7.96.03,11.93-.04,1.05-.02,1.65.33,2.23,1.18,3.71,5.37,7.48,10.7,11.23,16.04.14.2.32.38.7.84.16-.31.23-.58.4-.77,4.43-5.21,8.89-10.38,13.27-15.63.97-1.17,1.99-1.81,3.5-1.63.55.06,1.12.01,1.96.01-.32.51-.47.85-.7,1.12-5.09,5.98-10.19,11.95-15.29,17.93-.43.5-.85,1-1.33,1.55,6.68,9.4,13.31,18.74,20.11,28.31ZM6.71,3.4c.27.39.42.63.59.87,1.63,2.28,3.28,4.54,4.9,6.83,7.97,11.27,15.94,22.54,23.89,33.82.41.58.85.77,1.52.75,1.53-.03,3.06,0,4.58,0,.27,0,.53-.09.96-.16C33.12,31.35,23.2,17.36,13.3,3.4h-6.6Z"/>
  </g>
</svg>